<?xml version="1.0" encoding="utf-8"?>
<!-- Generator: Adobe Illustrator 17.0.0, SVG Export Plug-In . SVG Version: 6.00 Build 0)  -->
<!DOCTYPE svg PUBLIC "-//W3C//DTD SVG 1.1//EN" "http://www.w3.org/Graphics/SVG/1.1/DTD/svg11.dtd">
<svg version="1.1" xmlns="http://www.w3.org/2000/svg" xmlns:xlink="http://www.w3.org/1999/xlink" x="0px" y="0px" width="332px"
	 height="161.5px" viewBox="0 0 332 161.5" enable-background="new 0 0 332 161.5" xml:space="preserve">
<g id="Tongue">
	<path fill="#ED5F5F" d="M287.758,47.904C279.174,47.375,270.632,51.092,263,53c-67.972,12.995-132.946,5.007-198.917,4.002
		C58.866,65.165,56,74.022,56,83.28C56,123.994,111.265,157,179.439,157s123.439-33.006,123.439-73.72
		C302.877,70.46,297.394,58.406,287.758,47.904z"/>
</g>
<g id="Over_lips">
	<path fill="#E52525" stroke="#E52525" stroke-miterlimit="10" d="M313.25,10.05c0.408,1.301,0.628,2.618,0.628,3.95
		c0,23.748-66.262,43-148,43s-148-19.252-148-43c0-1.332,0.22-2.649,0.628-3.95C8.489,17.311,2.877,25.43,2.877,34
		c0,30.928,72.978,56,163,56s163-25.072,163-56C328.877,25.43,323.266,17.311,313.25,10.05z"/>
</g>
<g id="text">
	
		<text transform="matrix(1 0 0 1 95.2451 30)" fill="#E52525" stroke="#E52525" stroke-miterlimit="10" font-family="'MyriadPro-Regular'" font-size="31">Chat-Easily</text>
</g>
</svg>
